<?xml version="1.0" encoding="UTF-8" standalone="no"?>
<svg width="1920" height="1080" viewBox="0 0 1920 1080" xmlns="http://www.w3.org/2000/svg">
  <!-- 背景色 -->
  <rect width="100%" height="100%" fill="#0a0f1c"/>
  
  <!-- 洞窟の内部を表現する多角形 -->
  <polygon points="0,1080 1920,1080 1920,400 1600,500 1400,450 1200,500 1000,450 800,500 600,450 400,500 200,450 0,400" fill="#121827"/>
  
  <!-- 山の形状 -->
  <polygon points="0,600 200,500 400,650 600,550 800,700 1000,600 1200,750 1400,650 1600,750 1800,650 1920,700 1920,1080 0,1080" fill="#1E293B"/>
  
  <!-- 鉱脈表現 -->
  <g opacity="0.7">
    <path d="M500,600 L550,550 L600,600 L650,550 L700,600" stroke="#60A5FA" stroke-width="3" fill="none"/>
    <path d="M1200,650 L1250,600 L1300,650 L1350,600 L1400,650" stroke="#60A5FA" stroke-width="3" fill="none"/>
    <path d="M800,700 L850,650 L900,700 L950,650 L1000,700" stroke="#60A5FA" stroke-width="3" fill="none"/>
  </g>
  
  <!-- 輝く鉱石 -->
  <g>
    <circle cx="550" cy="550" r="5" fill="#3B82F6"/>
    <circle cx="1300" cy="650" r="5" fill="#3B82F6"/>
    <circle cx="900" cy="700" r="5" fill="#3B82F6"/>
    <circle cx="1600" cy="800" r="8" fill="#3B82F6" opacity="0.8"/>
    <circle cx="300" cy="750" r="8" fill="#3B82F6" opacity="0.8"/>
  </g>
  
  <!-- 洞窟内部の暗い部分 -->
  <g opacity="0.4">
    <ellipse cx="400" cy="800" rx="200" ry="100" fill="#000"/>
    <ellipse cx="1200" cy="850" rx="250" ry="120" fill="#000"/>
    <ellipse cx="1700" cy="900" rx="150" ry="80" fill="#000"/>
  </g>
  
  <!-- 光の効果 -->
  <g opacity="0.2">
    <radialGradient id="glow1" cx="50%" cy="50%" r="50%" fx="50%" fy="50%">
      <stop offset="0%" stop-color="#3B82F6" stop-opacity="0.8"/>
      <stop offset="100%" stop-color="#3B82F6" stop-opacity="0"/>
    </radialGradient>
    <circle cx="550" cy="550" r="50" fill="url(#glow1)"/>
    <circle cx="1300" cy="650" r="60" fill="url(#glow1)"/>
    <circle cx="900" cy="700" r="70" fill="url(#glow1)"/>
  </g>
  
  <!-- 落石や岩を表現 -->
  <g fill="#334155">
    <circle cx="200" cy="900" r="30"/>
    <circle cx="700" cy="950" r="40"/>
    <circle cx="1500" cy="950" r="35"/>
    <ellipse cx="1100" cy="1000" rx="45" ry="30"/>
  </g>
</svg>
