<?xml version="1.0" encoding="UTF-8"?>
<svg width="1920" height="1080" viewBox="0 0 1920 1080" fill="none" xmlns="http://www.w3.org/2000/svg">
  <!-- 背景 -->
  <rect width="1920" height="1080" fill="#0a0f1c"/>
  
  <!-- 大地 -->
  <path d="M0 400C200 380 400 450 600 420C800 390 1000 430 1200 450C1400 470 1600 430 1800 400C1920 380 1920 1080 1920 1080L0 1080L0 400Z" fill="#1E293B"/>
  
  <!-- 山脈 -->
  <path d="M0 550L100 450L200 600L300 500L400 650L500 550L600 700L700 600L800 700L900 600L1000 750L1100 650L1200 700L1300 600L1400 650L1500 550L1600 650L1700 550L1800 650L1920 600V1080H0V550Z" fill="#334155" fill-opacity="0.7"/>
  
  <!-- 湖 -->
  <ellipse cx="1300" cy="500" rx="150" ry="80" fill="#0EA5E9" fill-opacity="0.3"/>
  
  <!-- 川 -->
  <path d="M1300 500C1300 500 1250 600 1200 650C1150 700 1100 750 1050 800C1000 850 950 900 950 1080" stroke="#0EA5E9" stroke-opacity="0.5" stroke-width="20"/>
  
  <!-- 森林 -->
  <g opacity="0.5">
    <circle cx="300" cy="650" r="50" fill="#10B981"/>
    <circle cx="350" cy="680" r="40" fill="#10B981"/>
    <circle cx="250" cy="680" r="40" fill="#10B981"/>
    <circle cx="300" cy="710" r="35" fill="#10B981"/>
  </g>
  <g opacity="0.5">
    <circle cx="1600" cy="750" r="60" fill="#10B981"/>
    <circle cx="1660" cy="780" r="45" fill="#10B981"/>
    <circle cx="1540" cy="780" r="45" fill="#10B981"/>
    <circle cx="1600" cy="820" r="40" fill="#10B981"/>
  </g>
  
  <!-- 道路 -->
  <path d="M300 650C400 600 500 620 600 600C700 580 800 600 900 650C1000 700 1100 720 1200 700C1300 680 1400 700 1500 680" stroke="#9CA3AF" stroke-opacity="0.3" stroke-width="5" stroke-dasharray="10 5"/>
  <path d="M1300 500C1200 550 1100 580 1000 650C900 720 800 750 700 700" stroke="#9CA3AF" stroke-opacity="0.3" stroke-width="5" stroke-dasharray="10 5"/>
  <path d="M500 350C550 450 600 550 650 630" stroke="#9CA3AF" stroke-opacity="0.3" stroke-width="5" stroke-dasharray="10 5"/>
  <path d="M1600 400C1550 500 1500 600 1450 680" stroke="#9CA3AF" stroke-opacity="0.3" stroke-width="5" stroke-dasharray="10 5"/>
  
  <!-- 星や光 -->
  <g opacity="0.5">
    <circle cx="100" cy="100" r="1" fill="white"/>
    <circle cx="200" cy="150" r="1" fill="white"/>
    <circle cx="300" cy="80" r="1" fill="white"/>
    <circle cx="500" cy="120" r="1" fill="white"/>
    <circle cx="700" cy="200" r="1" fill="white"/>
    <circle cx="900" cy="100" r="1" fill="white"/>
    <circle cx="1100" cy="180" r="1" fill="white"/>
    <circle cx="1300" cy="120" r="1" fill="white"/>
    <circle cx="1500" cy="80" r="1" fill="white"/>
    <circle cx="1700" cy="160" r="1" fill="white"/>
    <circle cx="1800" cy="90" r="1" fill="white"/>
  </g>
  <g opacity="0.7">
    <circle cx="150" cy="70" r="0.8" fill="white"/>
    <circle cx="250" cy="180" r="0.8" fill="white"/>
    <circle cx="350" cy="50" r="0.8" fill="white"/>
    <circle cx="550" cy="90" r="0.8" fill="white"/>
    <circle cx="750" cy="170" r="0.8" fill="white"/>
    <circle cx="950" cy="70" r="0.8" fill="white"/>
    <circle cx="1150" cy="150" r="0.8" fill="white"/>
    <circle cx="1350" cy="90" r="0.8" fill="white"/>
    <circle cx="1550" cy="50" r="0.8" fill="white"/>
    <circle cx="1750" cy="130" r="0.8" fill="white"/>
    <circle cx="1850" cy="60" r="0.8" fill="white"/>
  </g>
</svg>
