<?xml version="1.0" encoding="UTF-8"?>
<svg width="100" height="100" viewBox="0 0 100 100" fill="none" xmlns="http://www.w3.org/2000/svg">
  <!-- 背景 -->
  <circle cx="50" cy="50" r="50" fill="#1E293B"/>
  
  <!-- 谷 -->
  <path d="M10 30C25 60 40 70 50 70C60 70 75 60 90 30V80H10V30Z" fill="#334155"/>
  
  <!-- 結晶のシンボル -->
  <g transform="translate(40, 35)">
    <path d="M10 0L20 15L10 30L0 15L10 0Z" fill="#A78BFA" opacity="0.8"/>
    <path d="M10 0L20 15L10 30L0 15L10 0Z" stroke="#C4B5FD" stroke-width="1" stroke-linecap="round"/>
  </g>
  
  <!-- 小さな結晶 -->
  <g transform="translate(25, 45)">
    <path d="M5 0L10 7.5L5 15L0 7.5L5 0Z" fill="#A78BFA" opacity="0.6"/>
  </g>
  
  <g transform="translate(65, 45)">
    <path d="M5 0L10 7.5L5 15L0 7.5L5 0Z" fill="#A78BFA" opacity="0.6"/>
  </g>
  
  <!-- 町のシルエット -->
  <path d="M45 70H55V60H45V70ZM35 70H40V65H35V70ZM60 70H65V65H60V70Z" fill="#C4B5FD"/>
</svg>
