<?xml version="1.0" encoding="UTF-8"?>
<svg width="100" height="100" viewBox="0 0 100 100" xmlns="http://www.w3.org/2000/svg">
  <defs>
    <linearGradient id="fire-gradient" x1="0%" y1="0%" x2="100%" y2="100%">
      <stop offset="0%" stop-color="#ff7b25" />
      <stop offset="100%" stop-color="#b22222" />
    </linearGradient>
    <linearGradient id="metal-gradient" x1="0%" y1="0%" x2="100%" y2="100%">
      <stop offset="0%" stop-color="#aaaaaa" />
      <stop offset="50%" stop-color="#777777" />
      <stop offset="100%" stop-color="#555555" />
    </linearGradient>
  </defs>
  <circle cx="50" cy="50" r="45" fill="#2a1a10" />
  <!-- 火山口に建つ鉱山都市を表現 -->
  <path d="M20 75 L30 50 L40 60 L50 35 L60 60 L70 50 L80 75 Z" 
      fill="url(#metal-gradient)" stroke="#cccccc" stroke-width="1.5" />
  <!-- 火山クレーターを表現 -->
  <path d="M25 75 L35 55 L45 65 L50 45 L55 65 L65 55 L75 75 Z" 
      fill="url(#fire-gradient)" opacity="0.7" />
  <!-- 金属の塔や鍛冶場を表す要素 -->
  <rect x="40" y="40" width="5" height="15" fill="#888888" />
  <rect x="55" y="40" width="5" height="15" fill="#888888" />
  <circle cx="42.5" cy="35" r="4" fill="url(#fire-gradient)" />
  <circle cx="57.5" cy="35" r="4" fill="url(#fire-gradient)" />
  <!-- 溶岩の流れを表現 -->
  <path d="M45 65 L44 72 L46 75 M50 62 L50 75 M55 65 L56 70 L54 75" 
      fill="none" stroke="#ff5533" stroke-width="2" />
</svg>
