<?xml version="1.0" encoding="UTF-8"?>
<svg width="100" height="100" viewBox="0 0 100 100" xmlns="http://www.w3.org/2000/svg">
  <defs>
    <linearGradient id="ice-gradient" x1="0%" y1="0%" x2="100%" y2="100%">
      <stop offset="0%" stop-color="#c9f0ff" />
      <stop offset="100%" stop-color="#88c0d0" />
    </linearGradient>
  </defs>
  <circle cx="50" cy="50" r="45" fill="#203040" />
  <path d="M50 15 L60 25 L55 35 L70 40 L60 50 L70 60 L55 65 L60 75 L50 85 L40 75 L45 65 L30 60 L40 50 L30 40 L45 35 L40 25 Z" 
      fill="url(#ice-gradient)" stroke="#e5f9ff" stroke-width="1.5" />
  <!-- 中央の円形の月を表現 -->
  <circle cx="50" cy="50" r="15" fill="#e5f9ff" opacity="0.8" />
  <!-- 雪の結晶を表現する小さな星 -->
  <circle cx="25" cy="30" r="2" fill="#ffffff" />
  <circle cx="35" cy="20" r="2" fill="#ffffff" />
  <circle cx="65" cy="20" r="2" fill="#ffffff" />
  <circle cx="75" cy="30" r="2" fill="#ffffff" />
  <circle cx="75" cy="70" r="2" fill="#ffffff" />
  <circle cx="65" cy="80" r="2" fill="#ffffff" />
  <circle cx="35" cy="80" r="2" fill="#ffffff" />
  <circle cx="25" cy="70" r="2" fill="#ffffff" />
</svg>
