<?xml version="1.0" encoding="UTF-8"?>
<svg width="100" height="100" viewBox="0 0 100 100" xmlns="http://www.w3.org/2000/svg">
  <defs>
    <linearGradient id="forest-gradient" x1="0%" y1="0%" x2="100%" y2="100%">
      <stop offset="0%" stop-color="#7fb069" />
      <stop offset="100%" stop-color="#2c5f2d" />
    </linearGradient>
  </defs>
  <circle cx="50" cy="50" r="45" fill="#1a2a1b" />
  <!-- 螺旋構造を持つ巨大な神木 -->
  <path d="M50 10 C60 20, 70 25, 65 40 C80 45, 75 55, 65 60 C75 70, 65 80, 50 85 C35 80, 25 70, 35 60 C25 55, 20 45, 35 40 C30 25, 40 20, 50 10" 
      fill="url(#forest-gradient)" stroke="#a5d6a7" stroke-width="1.5" />
  <!-- 螺旋状の道 -->
  <path d="M50 20 C55 25, 60 30, 55 40 C65 45, 60 50, 55 55 C60 60, 55 65, 50 70 C45 65, 40 60, 45 55 C40 50, 35 45, 45 40 C40 30, 45 25, 50 20" 
      fill="none" stroke="#e3f2e4" stroke-width="1.5" opacity="0.7" />
  <!-- 葉と樹枝を表す小さな円 -->
  <circle cx="35" cy="30" r="3" fill="#a5d6a7" opacity="0.9" />
  <circle cx="65" cy="30" r="3" fill="#a5d6a7" opacity="0.9" />
  <circle cx="30" cy="50" r="3" fill="#a5d6a7" opacity="0.9" />
  <circle cx="70" cy="50" r="3" fill="#a5d6a7" opacity="0.9" />
  <circle cx="35" cy="70" r="3" fill="#a5d6a7" opacity="0.9" />
  <circle cx="65" cy="70" r="3" fill="#a5d6a7" opacity="0.9" />
</svg>
