<?xml version="1.0" encoding="UTF-8"?>
<svg width="100" height="100" viewBox="0 0 100 100" xmlns="http://www.w3.org/2000/svg">
  <defs>
    <linearGradient id="desert-gradient" x1="0%" y1="0%" x2="100%" y2="100%">
      <stop offset="0%" stop-color="#d8b76e" />
      <stop offset="100%" stop-color="#a67c00" />
    </linearGradient>
    <linearGradient id="water-gradient" x1="0%" y1="0%" x2="100%" y2="100%">
      <stop offset="0%" stop-color="#7fc9ed" />
      <stop offset="100%" stop-color="#4285b4" />
    </linearGradient>
  </defs>
  <circle cx="50" cy="50" r="45" fill="#2a1a10" />
  <!-- 砂漠の風景 -->
  <path d="M15 75 C25 65, 35 70, 45 65 C55 70, 65 65, 75 70 C85 65, 90 70, 85 75 Z" 
      fill="url(#desert-gradient)" stroke="#e0c080" stroke-width="1" />
  <!-- 砂丘を表現 -->
  <path d="M15 75 C25 60, 35 65, 45 55 C55 65, 65 55, 75 65 C85 60, 90 65, 85 75 Z" 
      fill="none" stroke="#e0c080" stroke-width="1" opacity="0.5" />
  <!-- オアシスの水 -->
  <ellipse cx="50" cy="55" rx="15" ry="10" fill="url(#water-gradient)" />
  <!-- ヤシの木 -->
  <line x1="40" y1="55" x2="35" y2="35" stroke="#7a5d2c" stroke-width="2" />
  <path d="M35 35 C30 32, 25 37, 30 40 C25 40, 22 45, 30 47 C28 50, 32 55, 38 50 C42 55, 45 50, 43 47 C50 45, 48 40, 43 40 C48 37, 45 32, 40 35" 
      fill="#2e7d32" stroke="#1b5e20" stroke-width="0.5" />
  <!-- 砂漠の建物 -->
  <rect x="55" y="45" width="10" height="10" rx="2" fill="#c2b280" />
  <rect x="60" y="40" width="12" height="8" rx="2" fill="#c2b280" />
</svg>
